<svg xmlns="http://www.w3.org/2000/svg" data-name="Слой 1" viewBox="0 0 350.99555 388.88716250000004" x="0px" y="0px"><title>1</title><path d="M195.44072,0a7.97755,7.97755,0,0,0-7.97717,7.97717V23.93152a7.97718,7.97718,0,0,0,15.95434,0V16.19763a139.78028,139.78028,0,0,1,131.38007,131.38h-7.73389a7.97718,7.97718,0,0,0,0,15.95435H334.798A139.78028,139.78028,0,0,1,203.41789,294.91209v-7.73388a7.97717,7.97717,0,1,0-15.95434,0v15.95434a7.97757,7.97757,0,0,0,7.97717,7.97718c85.7728,0,155.55484-69.78208,155.55484-155.55487S281.21349,0,195.44072,0Z" transform="translate(-0.00001)"/><path d="M214.05412,156.88438a17.25709,17.25709,0,0,0-.62906-4.56424L275.98433,96.452a4.78912,4.78912,0,0,0-6.125-7.35639L203.151,140.83171a17.27776,17.27776,0,1,0,10.90319,16.0527Zm-25.261,0a7.95029,7.95029,0,0,1,5.6492-7.5914h0a9.58038,9.58038,0,0,1,1.04858-.25674,7.86855,7.86855,0,0,1,9.11878,9.21469,8.99026,8.99026,0,0,1-.32785,1.21869h0a7.95672,7.95672,0,0,1-15.48871-2.58521Z" transform="translate(-0.00001)"/><path d="M147.79927,148.90721H6.42606C2.8773,148.90721,0,152.479,0,156.88438s2.87729,7.97718,6.42605,7.97718H147.79927c3.54877,0,6.426-3.57181,6.426-7.97718S151.348,148.90721,147.79927,148.90721Z" transform="translate(-0.00001)"/><path d="M148.293,228.67894H41.51126c-3.27609,0-5.93233,3.57181-5.93233,7.97717s2.65622,7.97718,5.93233,7.97718H148.293c3.2761,0,5.93232-3.57181,5.93232-7.97718S151.56911,228.67894,148.293,228.67894Z" transform="translate(-0.00001)"/><path d="M148.293,69.13548H41.51126c-3.27609,0-5.93233,3.57181-5.93233,7.97718s2.65622,7.97717,5.93233,7.97717H148.293c3.2761,0,5.93232-3.57181,5.93232-7.97717S151.56911,69.13548,148.293,69.13548Z" transform="translate(-0.00001)"/><text x="0" y="326.10973" fill="#000000" font-size="5px" font-weight="bold" font-family="'Helvetica Neue', Helvetica, Arial-Unicode, Arial, Sans-serif">Created by Chintuza</text><text x="0" y="331.10973" fill="#000000" font-size="5px" font-weight="bold" font-family="'Helvetica Neue', Helvetica, Arial-Unicode, Arial, Sans-serif">from the Noun Project</text></svg>